<?xml version="1.0" encoding="UTF-8"?>
<svg version="1.1" xmlns="http://www.w3.org/2000/svg" width="152" height="136">
<path d="M0 0 C0.99 0 1.98 0 3 0 C3 0.99 3 1.98 3 3 C3.66 3 4.32 3 5 3 C5.6708712 4.6232687 6.33657029 6.24867578 7 7.875 C7.37125 8.77992187 7.7425 9.68484375 8.125 10.6171875 C9 13 9 13 9 15 C9.66 15 10.32 15 11 15 C11.67305018 16.60149886 12.33822227 18.20631029 13 19.8125 C13.37125 20.70582031 13.7425 21.59914063 14.125 22.51953125 C15 25 15 25 15 28 C15.66 28 16.32 28 17 28 C17.6708712 29.6232687 18.33657029 31.24867578 19 32.875 C19.37125 33.77992187 19.7425 34.68484375 20.125 35.6171875 C21 38 21 38 21 40 C21.66 40 22.32 40 23 40 C23.65134925 41.56020867 24.29582964 43.12328579 24.9375 44.6875 C25.47697266 45.99267578 25.47697266 45.99267578 26.02734375 47.32421875 C26.9570312 49.88179265 27.54162625 52.3221323 28 55 C26.865625 55.268125 25.73125 55.53625 24.5625 55.8125 C23.386875 56.204375 22.21125 56.59625 21 57 C20.67 57.99 20.34 58.98 20 60 C15.66666667 63 15.66666667 63 13 63 C13 63.66 13 64.32 13 65 C11.35 65 9.7 65 8 65 C7.49384702 63.73160474 6.99530901 62.46016898 6.5 61.1875 C6.2215625 60.47980469 5.943125 59.77210937 5.65625 59.04296875 C5 57 5 57 5 54 C4.34 54 3.68 54 3 54 C2.34 53.01 1.68 52.02 1 51 C0.34 52.65 -0.32 54.3 -1 56 C-1.66 56 -2.32 56 -3 56 C-3.28875 57.216875 -3.5775 58.43375 -3.875 59.6875 C-4.67835792 62.91814648 -5.66265409 65.94320935 -7 69 C-7.66 69 -8.32 69 -9 69 C-9.309375 70.093125 -9.61875 71.18625 -9.9375 72.3125 C-10.58337897 74.55407994 -11.2623117 76.7869351 -12 79 C-12.66 79 -13.32 79 -14 79 C-14.4803318 80.58298026 -14.95921612 82.16639978 -15.4375 83.75 C-15.70433594 84.63171875 -15.97117188 85.5134375 -16.24609375 86.421875 C-16.71225908 88.01601551 -17.14094152 89.62231103 -17.5078125 91.2421875 C-18 93 -18 93 -19.4375 94.375 C-21.58614244 96.60958813 -22.04992638 99.08644088 -23 102 C-23.99 102.495 -23.99 102.495 -25 103 C-25.33 104.32 -25.66 105.64 -26 107 C-13.46 107.33 -0.92 107.66 12 108 C12.75956712 111.79783558 13.09384849 114.16149821 12.87890625 117.86328125 C12.83056641 118.74951172 12.78222656 119.63574219 12.73242188 120.54882812 C12.64831055 121.9168457 12.64831055 121.9168457 12.5625 123.3125 C12.51029297 124.24384766 12.45808594 125.17519531 12.40429688 126.13476562 C12.2751852 128.42356353 12.14024585 130.71186186 12 133 C4.26351895 133.11598804 -3.47287165 133.20476267 -11.21002483 133.25906086 C-14.8030086 133.28512544 -18.39539636 133.32046329 -21.98803711 133.37719727 C-25.45698186 133.43163335 -28.92535439 133.46144416 -32.39469337 133.47438622 C-34.35851051 133.48808449 -36.32209825 133.52710018 -38.28556824 133.56648254 C-48.22060949 133.56960697 -48.22060949 133.56960697 -51.28833008 130.65698242 C-54.71191863 125.34263151 -54.66912837 120.13980429 -54 114 C-50.46570263 100.9681313 -50.46570263 100.9681313 -46 97 C-44.64398963 94.06197754 -43.70124434 91.15559955 -43 88 C-42.34 88 -41.68 88 -41 88 C-40.87625 87.0925 -40.7525 86.185 -40.625 85.25 C-40.07890323 82.41029677 -39.42736197 80.47409409 -38 78 C-37.34 78 -36.68 78 -36 78 C-35.87625 77.29875 -35.7525 76.5975 -35.625 75.875 C-33.87044174 67.80403202 -33.87044174 67.80403202 -31.56640625 65.67578125 C-29.47489765 63.43823214 -28.797202 61.19869551 -27.8125 58.3125 C-27.46832031 57.31863281 -27.12414062 56.32476562 -26.76953125 55.30078125 C-26.51558594 54.54152344 -26.26164062 53.78226563 -26 53 C-25.34 53 -24.68 53 -24 53 C-23.71125 51.96875 -23.4225 50.9375 -23.125 49.875 C-22.17691202 46.54992003 -21.11743406 43.27248547 -20 40 C-19.34 40 -18.68 40 -18 40 C-17.79503906 39.38511719 -17.59007812 38.77023438 -17.37890625 38.13671875 C-16.25260417 34.7578125 -15.12630208 31.37890625 -14 28 C-13.34 28 -12.68 28 -12 28 C-11.814375 26.6696875 -11.814375 26.6696875 -11.625 25.3125 C-11.05587264 22.29612498 -10.23385564 19.79673946 -9 17 C-8.34 17 -7.68 17 -7 17 C-6.79503906 16.31292969 -6.59007812 15.62585937 -6.37890625 14.91796875 C-6.10949219 14.01691406 -5.84007812 13.11585937 -5.5625 12.1875 C-5.29566406 11.29417969 -5.02882812 10.40085937 -4.75390625 9.48046875 C-4.19612127 7.64526945 -3.60655425 5.81966274 -3 4 C-2.34 4 -1.68 4 -1 4 C-0.67 2.68 -0.34 1.36 0 0 Z " fill="#E80733" transform="translate(54,2)"/>
<path d="M0 0 C7.47587939 -0.04640234 14.95172757 -0.08190926 22.42772198 -0.10362434 C25.89937628 -0.11404809 29.37093182 -0.12818138 32.8425293 -0.15087891 C36.83643527 -0.17682701 40.83023798 -0.18648443 44.82421875 -0.1953125 C46.06709152 -0.20563507 47.30996429 -0.21595764 48.59049988 -0.22659302 C49.75132584 -0.22674408 50.91215179 -0.22689514 52.1081543 -0.22705078 C53.12741501 -0.231492 54.14667572 -0.23593323 55.19682312 -0.24050903 C58.21048786 0.01805959 60.31958969 0.60643094 63 2 C66.53972237 7.30958355 65.61524199 14.76733112 65 21 C64.14622438 24.6451618 62.72918816 27.69112122 61 31 C60.38934759 32.23831464 59.78148571 33.47800763 59.17578125 34.71875 C57.48428038 38.16365164 55.75162763 41.58531018 54 45 C53.34 45 52.68 45 52 45 C51.86722656 45.61488281 51.73445313 46.22976562 51.59765625 46.86328125 C51.42105469 47.67152344 51.24445313 48.47976562 51.0625 49.3125 C50.88847656 50.11300781 50.71445313 50.91351563 50.53515625 51.73828125 C50 54 50 54 49 57 C48.01 57.495 48.01 57.495 47 58 C45.86897474 60.34038186 45.86897474 60.34038186 44.875 63.0625 C44.52179688 63.98160156 44.16859375 64.90070313 43.8046875 65.84765625 C43.53914063 66.55792969 43.27359375 67.26820312 43 68 C42.34 68 41.68 68 41 68 C40.896875 68.825 40.79375 69.65 40.6875 70.5 C39.90192533 74.49928924 38.8252891 78.34068836 37 82 C36.01 82.495 36.01 82.495 35 83 C34.21984379 84.82510997 33.52204594 86.68606676 32.875 88.5625 C32.34519531 90.08037109 32.34519531 90.08037109 31.8046875 91.62890625 C31.53914063 92.41136719 31.27359375 93.19382812 31 94 C30.34 94 29.68 94 29 94 C28.79503906 94.68707031 28.59007812 95.37414062 28.37890625 96.08203125 C28.10949219 96.98308594 27.84007812 97.88414063 27.5625 98.8125 C27.29566406 99.70582031 27.02882812 100.59914063 26.75390625 101.51953125 C26.19612127 103.35473055 25.60655425 105.18033726 25 107 C24.34 107 23.68 107 23 107 C22.01 110.3 21.02 113.6 20 117 C19.34 117 18.68 117 18 117 C17.79503906 117.61488281 17.59007812 118.22976562 17.37890625 118.86328125 C15.68945312 123.93164063 15.68945312 123.93164063 14 129 C13.34 129 12.68 129 12 129 C12 130.32 12 131.64 12 133 C11.01 133 10.02 133 9 133 C8.67 132.01 8.34 131.02 8 130 C7.34 129.67 6.68 129.34 6 129 C4.226728 124.4559905 3.14253943 119.73337762 2 115 C1.34 115 0.68 115 0 115 C-0.67354499 113.56570999 -1.33859701 112.12742943 -2 110.6875 C-2.556875 109.48673828 -2.556875 109.48673828 -3.125 108.26171875 C-4 106 -4 106 -4 103 C-4.66 103 -5.32 103 -6 103 C-6.67595315 101.58774074 -7.34040059 100.16997095 -8 98.75 C-8.37125 97.96109375 -8.7425 97.1721875 -9.125 96.359375 C-10 94 -10 94 -10 90 C-10.66 90 -11.32 90 -12 90 C-15.01953819 83.8401421 -15.01953819 83.8401421 -14.9375 80.3125 C-13.01227422 75.56360974 -9.28923931 73.46631261 -5 71 C-4.34 70.4225 -3.68 69.845 -3 69.25 C-1 68 -1 68 1.75 68.3125 C2.4925 68.539375 3.235 68.76625 4 69 C4.99 72.465 4.99 72.465 6 76 C6.66 76 7.32 76 8 76 C8.33 78.31 8.66 80.62 9 83 C9.66 83 10.32 83 11 83 C11 82.01 11 81.02 11 80 C11.99 79.505 11.99 79.505 13 79 C14.09815353 76.76184634 14.09815353 76.76184634 15.0625 74.125 C15.40410156 73.24070312 15.74570313 72.35640625 16.09765625 71.4453125 C16.7632722 69.64152209 17.3919947 67.8240159 18 66 C18.66 66 19.32 66 20 66 C20.13277344 65.37351562 20.26554687 64.74703125 20.40234375 64.1015625 C20.57894531 63.28429687 20.75554687 62.46703125 20.9375 61.625 C21.11152344 60.81289063 21.28554687 60.00078125 21.46484375 59.1640625 C22 57 22 57 23 55 C23.66 55 24.32 55 25 55 C25.20496094 54.38511719 25.40992188 53.77023438 25.62109375 53.13671875 C26.74739583 49.7578125 27.87369792 46.37890625 29 43 C29.66 43 30.32 43 31 43 C31.103125 41.989375 31.20625 40.97875 31.3125 39.9375 C32.26283157 34.49469194 33.70620201 29.68039828 38 26 C38 25.67 38 25.34 38 25 C36.88963379 24.97494385 35.77926758 24.9498877 34.63525391 24.92407227 C30.52396681 24.83005085 26.41285077 24.72981743 22.30175781 24.62768555 C20.52087397 24.5843167 18.73994802 24.54264306 16.95898438 24.50268555 C14.40221452 24.4450301 11.84565702 24.3813223 9.2890625 24.31640625 C8.49005524 24.29969376 7.69104797 24.28298126 6.86782837 24.26576233 C1.22774341 24.11387171 1.22774341 24.11387171 -1 23 C-1.02894547 19.54168414 -1.04678 16.08339928 -1.0625 12.625 C-1.07087891 11.64015625 -1.07925781 10.6553125 -1.08789062 9.640625 C-1.09111328 8.69960937 -1.09433594 7.75859375 -1.09765625 6.7890625 C-1.10289307 5.91975098 -1.10812988 5.05043945 -1.11352539 4.15478516 C-1 2 -1 2 0 0 Z " fill="#2F05F4" transform="translate(86,1)"/>
<path d="M0 0 C0.66 0 1.32 0 2 0 C2 0.66 2 1.32 2 2 C20.81 2.495 20.81 2.495 40 3 C40.495 5.475 40.495 5.475 41 8 C40.34 8 39.68 8 39 8 C39 7.01 39 6.02 39 5 C26.13 5 13.26 5 0 5 C-0.33 3.68 -0.66 2.36 -1 1 C-0.67 0.67 -0.34 0.34 0 0 Z " fill="#CD0633" transform="translate(26,107)"/>
<path d="M0 0 C12.87 0 25.74 0 39 0 C40 3 40 3 39.0625 5.1875 C38.711875 5.785625 38.36125 6.38375 38 7 C37.34 7 36.68 7 36 7 C35.67 8.32 35.34 9.64 35 11 C34.34 10.67 33.68 10.34 33 10 C33.5688554 6.70063868 34.54693298 5.23975684 37 3 C37 2.67 37 2.34 37 2 C18.685 1.505 18.685 1.505 0 1 C0 0.67 0 0.34 0 0 Z " fill="#2A06D7" transform="translate(87,24)"/>
<path d="M0 0 C0.66 0.33 1.32 0.66 2 1 C0.02 4.96 -1.96 8.92 -4 13 C-5.32 12.67 -6.64 12.34 -8 12 C-7.01 11.67 -6.02 11.34 -5 11 C-5 10.01 -5 9.02 -5 8 C-4.34 7.67 -3.68 7.34 -3 7 C-1.94647157 4.69034152 -0.94280904 2.3570226 0 0 Z " fill="#2A09CA" transform="translate(102,73)"/>
<path d="M0 0 C0.763125 0.20625 1.52625 0.4125 2.3125 0.625 C2.9725 2.935 3.6325 5.245 4.3125 7.625 C3.6525 7.625 2.9925 7.625 2.3125 7.625 C1.6525 5.645 0.9925 3.665 0.3125 1.625 C-1.6675 2.285 -3.6475 2.945 -5.6875 3.625 C-5.6875 2.965 -5.6875 2.305 -5.6875 1.625 C-2.6875 -0.375 -2.6875 -0.375 0 0 Z " fill="#2909C7" transform="translate(87.6875,69.375)"/>
<path d="M0 0 C0.66 0 1.32 0 2 0 C1.01 2.97 0.02 5.94 -1 9 C-1.66 9 -2.32 9 -3 9 C-3 9.66 -3 10.32 -3 11 C-3.66 11 -4.32 11 -5 11 C-5 10.01 -5 9.02 -5 8 C-4 7 -3 6 -2 5 C-0.80972016 2.40084462 -0.80972016 2.40084462 0 0 Z " fill="#B90A31" transform="translate(10,94)"/>
<path d="M0 0 C0.66 0 1.32 0 2 0 C2.69685498 1.6210103 3.38222861 3.24696066 4.0625 4.875 C4.63677734 6.23238281 4.63677734 6.23238281 5.22265625 7.6171875 C6 10 6 10 5 12 C2.03162219 7.97832683 0.47610659 4.99911924 0 0 Z " fill="#B30B32" transform="translate(63,17)"/>
<path d="M0 0 C0 3 0 3 -1 6 C-1.66 6 -2.32 6 -3 6 C-3.33 7.98 -3.66 9.96 -4 12 C-4.99 12.33 -5.98 12.66 -7 13 C-5.41393504 8.63832137 -3.3254914 3.3254914 0 0 Z " fill="#2A09C8" transform="translate(130,63)"/>
<path d="M0 0 C0.66 0 1.32 0 2 0 C1.69078116 1.45903258 1.37751201 2.91720722 1.0625 4.375 C0.88847656 5.18710937 0.71445313 5.99921875 0.53515625 6.8359375 C0 9 0 9 -1 11 C-1.66 11 -2.32 11 -3 11 C-2.69078116 9.54096742 -2.37751201 8.08279278 -2.0625 6.625 C-1.88847656 5.81289063 -1.71445313 5.00078125 -1.53515625 4.1640625 C-1 2 -1 2 0 0 Z " fill="#2809C3" transform="translate(109,56)"/>
<path d="M0 0 C0.99 0 1.98 0 3 0 C3.33 0.66 3.66 1.32 4 2 C5.32 1.67 6.64 1.34 8 1 C7.01 1.495 7.01 1.495 6 2 C6 3.32 6 4.64 6 6 C5.01 6 4.02 6 3 6 C2.67 5.01 2.34 4.02 2 3 C1.34 2.67 0.68 2.34 0 2 C0 1.34 0 0.68 0 0 Z " fill="#2907CD" transform="translate(92,128)"/>
<path d="M0 0 C0.66 0 1.32 0 2 0 C2.99 3.3 3.98 6.6 5 10 C4.34 10 3.68 10 3 10 C0.96564469 6.27034861 0 4.33094958 0 0 Z " fill="#B30A31" transform="translate(75,42)"/>
<path d="M0 0 C0.66 0 1.32 0 2 0 C1.01 2.97 0.02 5.94 -1 9 C-1.66 9 -2.32 9 -3 9 C-2.01 6.03 -1.02 3.06 0 0 Z " fill="#2A0AC8" transform="translate(114,47)"/>
<path d="M0 0 C0.66 0 1.32 0 2 0 C1.01 2.97 0.02 5.94 -1 9 C-1.33 9 -1.66 9 -2 9 C-1.125 1.125 -1.125 1.125 0 0 Z " fill="#280BBF" transform="translate(102,118)"/>
<path d="" fill="#E70833" transform="translate(0,0)"/>
<path d="" fill="#2806CE" transform="translate(0,0)"/>
<path d="" fill="#C90A32" transform="translate(0,0)"/>
<path d="" fill="#C20C32" transform="translate(0,0)"/>
<path d="" fill="#2A0EBA" transform="translate(0,0)"/>
<path d="" fill="#2904D8" transform="translate(0,0)"/>
<path d="" fill="#270BB3" transform="translate(0,0)"/>
<path d="" fill="#2C07E0" transform="translate(0,0)"/>
<path d="" fill="#280EAA" transform="translate(0,0)"/>
<path d="" fill="#290BBD" transform="translate(0,0)"/>
<path d="" fill="#2B06DB" transform="translate(0,0)"/>
<path d="" fill="#9F0D30" transform="translate(0,0)"/>
<path d="" fill="#2A0FB3" transform="translate(0,0)"/>
<path d="" fill="#2B08D0" transform="translate(0,0)"/>
<path d="" fill="#290DB3" transform="translate(0,0)"/>
<path d="" fill="#290AC4" transform="translate(0,0)"/>
<path d="" fill="#CF0834" transform="translate(0,0)"/>
<path d="" fill="#B10A31" transform="translate(0,0)"/>
<path d="" fill="#B50835" transform="translate(0,0)"/>
<path d="" fill="#A90E30" transform="translate(0,0)"/>
<path d="" fill="#2706C6" transform="translate(0,0)"/>
<path d="" fill="#B10835" transform="translate(0,0)"/>
<path d="" fill="#2D09DE" transform="translate(0,0)"/>
<path d="" fill="#B50B31" transform="translate(0,0)"/>
<path d="" fill="#2A09CA" transform="translate(0,0)"/>
<path d="" fill="#2A08CE" transform="translate(0,0)"/>
<path d="" fill="#A50C32" transform="translate(0,0)"/>
<path d="" fill="#B30D30" transform="translate(0,0)"/>
<path d="" fill="#BF0736" transform="translate(0,0)"/>
<path d="" fill="#2909C9" transform="translate(0,0)"/>
<path d="" fill="#B90834" transform="translate(0,0)"/>
<path d="" fill="#270DA9" transform="translate(0,0)"/>
<path d="" fill="#2C0ACD" transform="translate(0,0)"/>
<path d="" fill="#9C0836" transform="translate(0,0)"/>
<path d="" fill="#2B07D4" transform="translate(0,0)"/>
<path d="" fill="#270DAB" transform="translate(0,0)"/>
<path d="" fill="#A20C32" transform="translate(0,0)"/>
<path d="" fill="#C20736" transform="translate(0,0)"/>
<path d="" fill="#2507B8" transform="translate(0,0)"/>
<path d="" fill="#270DA9" transform="translate(0,0)"/>
<path d="" fill="#B80D31" transform="translate(0,0)"/>
<path d="" fill="#2B0BC8" transform="translate(0,0)"/>
<path d="" fill="#9D0B33" transform="translate(0,0)"/>
<path d="" fill="#2C0AD1" transform="translate(0,0)"/>
<path d="" fill="#2B06DB" transform="translate(0,0)"/>
<path d="" fill="#280CB9" transform="translate(0,0)"/>
<path d="" fill="#280EAD" transform="translate(0,0)"/>
<path d="" fill="#260BB2" transform="translate(0,0)"/>
<path d="" fill="#270DAD" transform="translate(0,0)"/>
<path d="" fill="#A10F2F" transform="translate(0,0)"/>
<path d="" fill="#280CB3" transform="translate(0,0)"/>
<path d="" fill="#2D05ED" transform="translate(0,0)"/>
<path d="" fill="#2C04EA" transform="translate(0,0)"/>
<path d="" fill="#280ABC" transform="translate(0,0)"/>
<path d="" fill="#2B0ACE" transform="translate(0,0)"/>
<path d="" fill="#A90D31" transform="translate(0,0)"/>
<path d="" fill="#2A08CD" transform="translate(0,0)"/>
<path d="" fill="#2C09CF" transform="translate(0,0)"/>
<path d="" fill="#9B0935" transform="translate(0,0)"/>
<path d="" fill="#280BB6" transform="translate(0,0)"/>
<path d="" fill="#BB0A33" transform="translate(0,0)"/>
<path d="" fill="#AC0935" transform="translate(0,0)"/>
<path d="" fill="#A40934" transform="translate(0,0)"/>
<path d="" fill="#2A0DB6" transform="translate(0,0)"/>
<path d="" fill="#BD0C31" transform="translate(0,0)"/>
<path d="" fill="#2A06D9" transform="translate(0,0)"/>
<path d="" fill="#2C07DF" transform="translate(0,0)"/>
<path d="" fill="#B60636" transform="translate(0,0)"/>
<path d="" fill="#A50D32" transform="translate(0,0)"/>
<path d="" fill="#B40537" transform="translate(0,0)"/>
<path d="" fill="#260AB1" transform="translate(0,0)"/>
<path d="" fill="#D80833" transform="translate(0,0)"/>
<path d="" fill="#2608BD" transform="translate(0,0)"/>
<path d="" fill="#B40933" transform="translate(0,0)"/>
<path d="" fill="#A80D31" transform="translate(0,0)"/>
<path d="" fill="#2905D5" transform="translate(0,0)"/>
<path d="" fill="#290BBD" transform="translate(0,0)"/>
<path d="" fill="#A50F30" transform="translate(0,0)"/>
<path d="" fill="#2706C5" transform="translate(0,0)"/>
<path d="" fill="#290AC0" transform="translate(0,0)"/>
<path d="" fill="#2A0FAC" transform="translate(0,0)"/>
<path d="" fill="#B20D30" transform="translate(0,0)"/>
<path d="" fill="#2909C6" transform="translate(0,0)"/>
<path d="" fill="#9F0D32" transform="translate(0,0)"/>
<path d="" fill="#B30C32" transform="translate(0,0)"/>
<path d="" fill="#B70A32" transform="translate(0,0)"/>
<path d="" fill="#2A09CE" transform="translate(0,0)"/>
<path d="" fill="#BE0933" transform="translate(0,0)"/>
<path d="" fill="#AD0836" transform="translate(0,0)"/>
<path d="" fill="#290EB1" transform="translate(0,0)"/>
<path d="" fill="#A50C32" transform="translate(0,0)"/>
<path d="" fill="#2A0BC2" transform="translate(0,0)"/>
<path d="" fill="#2909C5" transform="translate(0,0)"/>
<path d="" fill="#240BA8" transform="translate(0,0)"/>
<path d="" fill="#B80537" transform="translate(0,0)"/>
<path d="" fill="#C6053A" transform="translate(0,0)"/>
<path d="" fill="#280ABB" transform="translate(0,0)"/>
<path d="" fill="#B70A33" transform="translate(0,0)"/>
<path d="" fill="#280EB4" transform="translate(0,0)"/>
<path d="" fill="#B20A33" transform="translate(0,0)"/>
<path d="" fill="#2706CA" transform="translate(0,0)"/>
<path d="" fill="#C10537" transform="translate(0,0)"/>
<path d="" fill="#2A0BC3" transform="translate(0,0)"/>
<path d="" fill="#280EAA" transform="translate(0,0)"/>
<path d="" fill="#2910A8" transform="translate(0,0)"/>
<path d="" fill="#2C0ACC" transform="translate(0,0)"/>
<path d="" fill="#AB0B32" transform="translate(0,0)"/>
<path d="" fill="#B50B32" transform="translate(0,0)"/>
<path d="" fill="#BF0A32" transform="translate(0,0)"/>
<path d="" fill="#C80A32" transform="translate(0,0)"/>
<path d="" fill="#B30B33" transform="translate(0,0)"/>
<path d="" fill="#C30639" transform="translate(0,0)"/>
<path d="" fill="#9C0B33" transform="translate(0,0)"/>
<path d="" fill="#A30935" transform="translate(0,0)"/>
<path d="" fill="#B70735" transform="translate(0,0)"/>
<path d="" fill="#270BB2" transform="translate(0,0)"/>
<path d="" fill="#2908C7" transform="translate(0,0)"/>
<path d="" fill="#2910A7" transform="translate(0,0)"/>
<path d="" fill="#2807C4" transform="translate(0,0)"/>
<path d="" fill="#C10635" transform="translate(0,0)"/>
</svg>
